<svg width="70" height="69" viewBox="0 0 70 69" fill="none" xmlns="http://www.w3.org/2000/svg">
<path fill-rule="evenodd" clip-rule="evenodd" d="M29.7316 22.4222L34.656 27.3467L39.5809 22.4222V-0.161133H29.7316V22.4222Z" fill="#15D68C"/>
<path fill-rule="evenodd" clip-rule="evenodd" d="M39.5866 22.4238V29.3885H46.5508L62.5194 13.4193L55.5552 6.45508L39.5866 22.4238Z" fill="#5414B5"/>
<path fill-rule="evenodd" clip-rule="evenodd" d="M46.5502 29.3868L41.6258 34.3118L46.5502 39.2362H69.1335V29.3868H46.5502Z" fill="#FFCC00"/>
<path fill-rule="evenodd" clip-rule="evenodd" d="M46.5508 39.2363H39.5866V46.201L55.5552 62.1696L62.5194 55.205L46.5508 39.2363Z" fill="#3472ED"/>
<path fill-rule="evenodd" clip-rule="evenodd" d="M29.7316 46.2057L34.656 41.2812L39.5809 46.2057V68.789H29.7316V46.2057Z" fill="#15D68C"/>
<path fill-rule="evenodd" clip-rule="evenodd" d="M22.768 39.2363H29.7327V46.201L13.764 62.1696L6.79926 55.205L22.768 39.2363Z" fill="#5414B5"/>
<path fill-rule="evenodd" clip-rule="evenodd" d="M22.7671 29.3868L27.6916 34.3118L22.7671 39.2362H0.183777V29.3868H22.7671Z" fill="#FFCC00"/>
<path fill-rule="evenodd" clip-rule="evenodd" d="M29.7327 22.4238V29.3885H22.768L6.79926 13.4193L13.764 6.45508L29.7327 22.4238Z" fill="#3472ED"/>
</svg>
