<svg width="130" height="40" viewBox="0 0 130 40" fill="none" xmlns="http://www.w3.org/2000/svg">
<path fill-rule="evenodd" clip-rule="evenodd" d="M17.7754 14.1916L19.9978 16.414L22.2203 14.1916V4H17.7754V14.1916Z" fill="#15D68C"/>
<path fill-rule="evenodd" clip-rule="evenodd" d="M22.2207 14.1923V17.3354H25.3636L32.5701 10.1287L29.4272 6.98584L22.2207 14.1923Z" fill="#5414B5"/>
<path fill-rule="evenodd" clip-rule="evenodd" d="M25.3669 17.335L23.1445 19.5575L25.3669 21.7799H35.5585V17.335H25.3669Z" fill="#FFCC00"/>
<path fill-rule="evenodd" clip-rule="evenodd" d="M25.3636 21.7798H22.2207V24.9229L29.4272 32.1293L32.5701 28.9863L25.3636 21.7798Z" fill="#3472ED"/>
<path fill-rule="evenodd" clip-rule="evenodd" d="M17.7754 24.9245L19.9978 22.7021L22.2203 24.9245V35.1161H17.7754V24.9245Z" fill="#15D68C"/>
<path fill-rule="evenodd" clip-rule="evenodd" d="M14.6362 21.7798H17.7793V24.9229L10.5728 32.1293L7.42969 28.9863L14.6362 21.7798Z" fill="#5414B5"/>
<path fill-rule="evenodd" clip-rule="evenodd" d="M14.633 17.335L16.8554 19.5575L14.633 21.7799H4.44141V17.335H14.633Z" fill="#FFCC00"/>
<path fill-rule="evenodd" clip-rule="evenodd" d="M17.7793 14.1923V17.3354H14.6362L7.42969 10.1287L10.5728 6.98584L17.7793 14.1923Z" fill="#3472ED"/>
<path d="M65.8627 12.1951H63.0255V26.4545H60.2812V12.1951H63.0255L68.0403 26.4545H70.8775H73.6218V12.1951H70.8775V26.4545L65.8627 12.1951Z" fill="white"/>
<path d="M120.258 12.1951H117.42L112.406 26.4545H109.568L114.583 12.1951H117.42L120.608 21.2584H116.487L115.574 23.8564H121.521L122.435 26.4545H125.272L120.258 12.1951Z" fill="white"/>
<path d="M99.1016 12.1951H101.846V23.8564H107.849L106.936 26.4545H99.1016V12.1951Z" fill="white"/>
<path d="M93.3887 12.1951H96.133V26.4545H93.3887V12.1951Z" fill="white"/>
<path d="M83.4488 26.6503C82.4221 26.6503 81.4581 26.4647 80.5563 26.0936C79.6549 25.7223 78.8684 25.2081 78.1972 24.5503C77.526 23.8928 76.993 23.1179 76.5981 22.226C76.2032 21.334 76.0059 20.3671 76.0059 19.3252C76.0059 18.2965 76.1902 17.336 76.5586 16.4439C76.9273 15.5519 77.447 14.7772 78.1182 14.1194C78.7894 13.4619 79.5991 12.9442 80.5468 12.5666C81.4943 12.1889 82.5407 12 83.6858 12C84.5151 12 85.2983 12.1237 86.0352 12.3711C86.7723 12.6185 87.4369 12.9669 88.0292 13.4161C88.6214 13.8655 89.1248 14.3928 89.5395 14.9984C89.9541 15.6038 90.2601 16.2712 90.4575 17.0005H87.3381C87.0223 16.2843 86.5419 15.7177 85.8969 15.301C85.252 14.8843 84.4361 14.676 83.4488 14.676C82.7643 14.676 82.1359 14.7964 81.5633 15.0373C80.9907 15.2781 80.4939 15.6071 80.0727 16.0238C79.6516 16.4405 79.3226 16.932 79.0856 17.4985C78.8487 18.0651 78.7303 18.6738 78.7303 19.325C78.7303 19.9891 78.8554 20.6077 79.1054 21.1806C79.3555 21.7537 79.6944 22.2453 80.1223 22.6554C80.5501 23.0656 81.0502 23.388 81.6228 23.6223C82.1952 23.8566 82.804 23.974 83.449 23.974C84.6467 23.974 85.601 23.707 86.3117 23.1731C87.0225 22.6391 87.5094 21.9359 87.7727 21.0633H83.3504V18.4654H90.7143V19.4812C90.7143 20.4317 90.5467 21.3434 90.2109 22.216C89.8753 23.0884 89.3949 23.8503 88.7698 24.5015C88.1444 25.1525 87.3846 25.6734 86.4896 26.0641C85.5946 26.4547 84.581 26.6501 83.4491 26.6501L83.4488 26.6503Z" fill="white"/>
<path d="M50.3642 26.6501C49.3373 26.6501 48.3766 26.4579 47.4816 26.0738C46.5866 25.6896 45.8069 25.1686 45.1421 24.5111C44.4775 23.8533 43.9543 23.0786 43.5726 22.1866C43.1909 21.2945 43 20.3407 43 19.325C43 18.3092 43.1907 17.3587 43.5726 16.4732C43.9543 15.5876 44.4775 14.8127 45.1421 14.1486C45.8069 13.4846 46.5868 12.9603 47.4816 12.5763C48.3766 12.1922 49.3373 12 50.3642 12C51.3908 12 52.3515 12.192 53.2465 12.5763C54.1415 12.9605 54.9247 13.4846 55.5959 14.1486C56.2671 14.8127 56.7937 15.5876 57.1753 16.4732C57.557 17.3587 57.748 18.3094 57.748 19.325C57.748 20.3407 57.557 21.2945 57.1753 22.1866C56.7937 23.0786 56.2673 23.8533 55.5959 24.5111C54.9247 25.1686 54.1415 25.6894 53.2465 26.0738C52.3515 26.4579 51.3908 26.6501 50.3642 26.6501ZM50.3642 23.974C51.0091 23.974 51.6144 23.8503 52.1804 23.6027C52.7464 23.3553 53.2401 23.0231 53.6611 22.6065C54.0822 22.1899 54.4147 21.6983 54.6581 21.1318C54.9016 20.5652 55.0233 19.9631 55.0233 19.325C55.0233 18.6869 54.9016 18.0847 54.6581 17.5181C54.4147 16.9516 54.0822 16.4601 53.6611 16.0434C53.2399 15.6267 52.7462 15.2947 52.1804 15.0471C51.6144 14.7997 51.0091 14.676 50.3642 14.676C49.7192 14.676 49.1137 14.7997 48.5477 15.0471C47.9817 15.2945 47.4915 15.6265 47.077 16.0434C46.6623 16.4601 46.3333 16.9516 46.0898 17.5181C45.8464 18.0847 45.7247 18.687 45.7247 19.325C45.7247 19.9631 45.8464 20.5654 46.0898 21.1318C46.3333 21.6983 46.6624 22.1899 47.077 22.6065C47.4915 23.0232 47.9819 23.3553 48.5477 23.6027C49.1137 23.8501 49.719 23.974 50.3642 23.974Z" fill="white"/>
</svg>
